HIERARCHY
ROOT Hips
{
	OFFSET 0.000000 89.005402 0.000000
	CHANNELS 6 Xposition Yposition Zposition Xrotation Yrotation Zrotation
	JOINT Spine
	{
		OFFSET 0.116900 10.681000 0.373400
		CHANNELS 3 Xrotation Yrotation Zrotation
		JOINT Spine1
		{
			OFFSET 0.000000 13.840401 0.053500
			CHANNELS 3 Xrotation Yrotation Zrotation
			JOINT Spine2
			{
				OFFSET 0.000000 14.712700 -0.366200
				CHANNELS 3 Xrotation Yrotation Zrotation
				JOINT Neck
				{
					OFFSET 0.000000 35.415497 -3.314200
					CHANNELS 3 Xrotation Yrotation Zrotation
					JOINT Head
					{
						OFFSET 0.000000 16.899200 1.218300
						CHANNELS 3 Xrotation Yrotation Zrotation
						JOINT HeadTop_End
						{
							OFFSET 0.000000 22.206207 2.192500
							CHANNELS 3 Xrotation Yrotation Zrotation
							End Site
							{
								OFFSET 0.000000 22.314178 0.000000
							}
						}
					}
				}
				JOINT LeftShoulder
				{
					OFFSET 12.896400 26.716293 -4.548400
					CHANNELS 3 Xrotation Yrotation Zrotation
					JOINT LeftArm
					{
						OFFSET 19.027000 -4.857010 -1.718400
						CHANNELS 3 Xrotation Yrotation Zrotation
						JOINT LeftForeArm
						{
							OFFSET 24.179897 0.000000 0.000000
							CHANNELS 3 Xrotation Yrotation Zrotation
							JOINT LeftHand
							{
								OFFSET 27.156403 0.000000 0.000000
								CHANNELS 3 Xrotation Yrotation Zrotation
								JOINT LeftHandIndex1
								{
									OFFSET 16.441200 0.000000 0.000000
									CHANNELS 3 Xrotation Yrotation Zrotation
									JOINT LeftHandIndex2
									{
										OFFSET 4.821899 0.000000 0.000000
										CHANNELS 3 Xrotation Yrotation Zrotation
										JOINT LeftHandIndex3
										{
											OFFSET 6.386497 0.000000 0.000000
											CHANNELS 3 Xrotation Yrotation Zrotation
											JOINT LeftHandIndex4
											{
												OFFSET 5.188988 0.000000 0.000000
												CHANNELS 3 Xrotation Yrotation Zrotation
												End Site
												{
													OFFSET -0.178703 5.185913 0.000177
												}
											}
										}
									}
								}
								JOINT LeftHandThumb1
								{
									OFFSET 6.534897 -5.032593 5.900300
									CHANNELS 3 Xrotation Yrotation Zrotation
									JOINT LeftHandThumb2
									{
										OFFSET 3.818176 -2.204422 2.204423
										CHANNELS 3 Xrotation Yrotation Zrotation
										JOINT LeftHandThumb3
										{
											OFFSET 3.252098 -1.877594 1.877601
											CHANNELS 3 Xrotation Yrotation Zrotation
											JOINT LeftHandThumb4
											{
												OFFSET 5.251778 -3.032120 3.032117
												CHANNELS 3 Xrotation Yrotation Zrotation
												End Site
												{
													OFFSET 0.000023 6.780014 0.000000
												}
											}
										}
									}
								}
							}
						}
					}
				}
				JOINT RightShoulder
				{
					OFFSET -12.896300 26.716293 -4.548400
					CHANNELS 3 Xrotation Yrotation Zrotation
					JOINT RightArm
					{
						OFFSET -19.027000 -4.857010 -1.718400
						CHANNELS 3 Xrotation Yrotation Zrotation
						JOINT RightForeArm
						{
							OFFSET -24.179897 0.000000 0.000000
							CHANNELS 3 Xrotation Yrotation Zrotation
							JOINT RightHand
							{
								OFFSET -27.156403 0.000000 0.000000
								CHANNELS 3 Xrotation Yrotation Zrotation
								JOINT RightHandThumb1
								{
									OFFSET -6.591202 -4.852203 5.988100
									CHANNELS 3 Xrotation Yrotation Zrotation
									JOINT RightHandThumb2
									{
										OFFSET -3.818176 -2.204422 2.204423
										CHANNELS 3 Xrotation Yrotation Zrotation
										JOINT RightHandThumb3
										{
											OFFSET -3.252098 -1.877594 1.877601
											CHANNELS 3 Xrotation Yrotation Zrotation
											JOINT RightHandThumb4
											{
												OFFSET -5.251778 -3.032120 3.032117
												CHANNELS 3 Xrotation Yrotation Zrotation
												End Site
												{
													OFFSET -0.000023 6.780014 0.000000
												}
											}
										}
									}
								}
								JOINT RightHandIndex1
								{
									OFFSET -16.029404 0.000000 0.000000
									CHANNELS 3 Xrotation Yrotation Zrotation
									JOINT RightHandIndex2
									{
										OFFSET -5.213303 0.000000 0.000000
										CHANNELS 3 Xrotation Yrotation Zrotation
										JOINT RightHandIndex3
										{
											OFFSET -6.386528 0.000000 0.000000
											CHANNELS 3 Xrotation Yrotation Zrotation
											JOINT RightHandIndex4
											{
												OFFSET -5.189026 0.000000 0.000000
												CHANNELS 3 Xrotation Yrotation Zrotation
												End Site
												{
													OFFSET 0.236702 5.183624 0.001972
												}
											}
										}
									}
								}
							}
						}
					}
				}
			}
		}
	}
	JOINT LeftUpLeg
	{
		OFFSET 14.073000 -7.904099 -1.463000
		CHANNELS 3 Xrotation Yrotation Zrotation
		JOINT LeftLeg
		{
			OFFSET -0.109806 -34.073280 4.093200
			CHANNELS 3 Xrotation Yrotation Zrotation
			JOINT LeftFoot
			{
				OFFSET 0.109806 -29.899420 -6.319000
				CHANNELS 3 Xrotation Yrotation Zrotation
				JOINT LeftToeBase
				{
					OFFSET 1.551100 -14.988700 20.535801
					CHANNELS 3 Xrotation Yrotation Zrotation
					JOINT LeftToe_End
					{
						OFFSET 0.221200 0.570800 13.248301
						CHANNELS 3 Xrotation Yrotation Zrotation
						End Site
						{
							OFFSET 0.000000 13.262435 0.000000
						}
					}
				}
			}
		}
	}
	JOINT RightUpLeg
	{
		OFFSET -13.839300 -7.904099 -1.463000
		CHANNELS 3 Xrotation Yrotation Zrotation
		JOINT RightLeg
		{
			OFFSET 0.109694 -34.073219 4.093300
			CHANNELS 3 Xrotation Yrotation Zrotation
			JOINT RightFoot
			{
				OFFSET -0.109694 -29.899384 -6.319200
				CHANNELS 3 Xrotation Yrotation Zrotation
				JOINT RightToeBase
				{
					OFFSET -1.551100 -14.988700 20.535801
					CHANNELS 3 Xrotation Yrotation Zrotation
					JOINT RightToe_End
					{
						OFFSET -0.221200 0.570900 13.248299
						CHANNELS 3 Xrotation Yrotation Zrotation
						End Site
						{
							OFFSET 0.000000 13.262440 0.000000
						}
					}
				}
			}
		}
	}
}
MOTION
Frames: 4
Frame Time: 0.033333
0.939918 113.770134 5.428881 -17.557756 -1.981254 0.259925 -1.337508 0.854730 -2.405020 -2.790143 1.711735 -2.215721 -2.814271 1.726515 -2.222962 -13.505748 -1.680990 2.647033 -12.037275 -3.342421 -6.904562 -0.000002 -0.000001 -0.000000 0.300401 -2.613666 33.878462 -47.263324 -15.280400 -87.538997 0.000041 -117.318799 0.000050 -66.933914 13.803665 21.777319 2.206221 5.054923 -47.135672 4.111101 6.301439 -66.210857 1.113755 3.759700 -32.992218 0.000000 0.000000 0.000000 16.755040 -0.132273 0.203218 24.152801 23.887514 -16.932835 8.207904 10.872475 -4.631179 0.000003 0.000002 0.000001 0.142035 0.636263 -13.954464 -73.060580 8.655807 76.958583 0.001576 92.290930 -0.001620 -62.142769 -21.569929 -24.584446 13.040110 0.550763 -0.623336 20.924022 -12.777657 -0.132052 6.755998 -2.046043 -3.252819 -0.000002 -0.000002 -0.000001 1.264354 -4.002998 35.045472 1.944985 -4.827521 43.869226 0.503327 -2.601873 21.893628 0.000002 -0.000000 0.000001 -1.908777 17.869658 10.547904 34.286194 3.507305 -3.959583 6.830507 2.055764 0.548700 -0.000004 -0.000005 0.000003 -0.000001 0.000001 -0.000000 0.210599 -9.380215 -3.720484 19.855430 2.982824 -4.040915 9.355571 1.383798 5.762035 0.000000 -0.000000 0.000001 0.000000 -0.000000 -0.000000 
0.785760 113.768471 5.365820 -17.570283 -2.083455 0.210423 -1.306613 0.871372 -2.472349 -2.778475 1.716431 -2.313150 -2.804669 1.731064 -2.319388 -13.560928 -1.729209 2.741848 -12.024108 -3.408139 -6.960601 -0.000003 0.000000 0.000000 0.334350 -2.697201 34.258282 -47.136409 -15.059283 -87.750405 0.000007 -116.993286 0.000014 -67.406030 13.288677 20.647909 2.200040 5.049197 -47.065495 4.112240 6.301967 -66.221300 1.114101 3.760219 -32.997433 -0.000000 0.000001 -0.000001 16.769556 -0.170813 0.209769 24.130889 24.087994 -16.782888 8.188309 10.959839 -4.549309 0.000001 0.000002 0.000001 0.088829 0.551554 -14.222614 -72.872053 8.650354 76.728323 -0.010817 92.185861 0.010703 -61.846113 -21.603506 -25.693570 12.899048 0.659259 -0.597730 20.857782 -12.110969 0.160864 6.725466 -1.732438 -3.091713 -0.000001 -0.000001 -0.000001 1.163087 -3.854932 33.567576 1.955951 -4.838846 43.999262 0.506263 -2.609172 21.958307 0.000001 -0.000002 -0.000000 -1.885567 17.912962 10.629930 33.959516 3.542858 -3.918533 6.815287 2.060067 0.500950 -0.000004 -0.000006 0.000003 0.000001 0.000000 -0.000000 0.353719 -9.271341 -3.402317 19.425053 2.802328 -4.050306 9.363243 1.397160 5.787484 -0.000000 -0.000000 0.000001 -0.000001 0.000000 -0.000000 
0.637899 113.773788 5.333611 -17.512914 -2.253201 0.169802 -1.261456 0.925514 -2.640784 -2.782981 1.804588 -2.385745 -2.812672 1.822902 -2.387721 -13.638745 -1.787223 2.865491 -12.069831 -3.463618 -7.059760 -0.000001 0.000000 -0.000001 0.366601 -2.787048 34.677745 -47.244685 -14.944176 -87.974988 0.000073 -116.862775 0.000080 -67.768877 12.900630 19.779188 2.201388 5.050452 -47.080832 4.113662 6.302598 -66.234202 1.114523 3.760866 -33.003805 -0.000000 -0.000003 0.000002 16.784778 -0.197675 0.212766 24.168496 24.294274 -16.707392 8.192246 11.058954 -4.500145 -0.000000 -0.000003 -0.000001 0.051054 0.494866 -14.597540 -72.649662 8.065732 76.566940 0.007137 92.459875 -0.007189 -61.135541 -21.424249 -26.093778 12.717722 0.677015 -0.612321 20.940786 -11.656297 0.410424 6.768176 -1.524812 -2.964964 -0.000001 0.000001 -0.000001 1.099513 -3.757612 32.610103 1.945265 -4.827803 43.872480 0.503405 -2.602063 21.895247 -0.000000 0.000001 0.000003 -1.889329 17.963841 10.625350 33.390367 3.577311 -3.831807 6.866052 2.063505 0.408297 -0.000002 -0.000005 0.000003 -0.000000 0.000002 -0.000000 0.372526 -9.072308 -3.098431 18.920818 2.630718 -4.127190 9.310321 1.265687 5.902401 0.000001 -0.000001 0.000001 0.000000 -0.000000 -0.000000 
0.508953 113.777092 5.331455 -17.409051 -2.433140 0.152235 -1.210161 0.999076 -2.886101 -2.798793 1.935329 -2.430479 -2.832145 1.959934 -2.426444 -13.742149 -1.841547 2.983418 -12.155018 -3.509573 -7.174324 -0.000001 -0.000000 -0.000000 0.386546 -2.846470 35.070822 -47.557207 -14.910738 -88.179136 0.000099 -116.899999 0.000110 -67.994670 12.677755 19.277027 2.210262 5.058659 -47.181502 4.115223 6.303263 -66.248470 1.114976 3.761569 -33.010878 -0.000000 0.000002 -0.000001 16.801033 -0.211526 0.211913 24.240842 24.451203 -16.707691 8.212609 11.141071 -4.488369 -0.000000 -0.000001 0.000002 0.025604 0.442212 -15.065837 -72.448185 7.052188 76.546032 0.000629 92.940597 -0.000672 -60.040573 -21.149478 -25.845620 12.520452 0.573238 -0.666347 21.178180 -11.567622 0.492084 6.885661 -1.491199 -2.937817 -0.000002 -0.000001 -0.000000 1.073128 -3.716131 32.205298 1.933199 -4.815247 43.728825 0.500167 -2.593994 21.823759 -0.000002 0.000001 0.000001 -1.909888 18.004961 10.538982 32.604895 3.616339 -3.703521 6.976143 2.064933 0.275268 -0.000002 -0.000008 0.000003 0.000001 0.000001 -0.000001 0.307196 -8.816584 -2.831023 18.405613 2.486539 -4.242857 9.224540 1.021884 6.076482 -0.000001 -0.000001 0.000001 0.000001 0.000000 -0.000000 
